<svg xmlns="http://www.w3.org/2000/svg" width="600" height="104" fill="none"><path fill="#CD2E2B" fill-rule="evenodd" d="m.85 0 109.033.004v103.264H87.906V21.82H65.93v80.721H43.953v-80.72H21.977v80.72H0V.004z" clip-rule="evenodd"/><path fill="#111" fill-rule="evenodd" d="M131.133 103.302q-2.211 0-2.211-2.214v-50.93q0-2.214 2.211-2.214h28.016q2.212 0 2.212 2.214v6.643q0 2.214-2.212 2.214h-16.957V69.35h15.483q2.212 0 2.212 2.214v5.905q0 2.215-2.212 2.215h-15.483V92.23h17.695q2.211 0 2.211 2.214v6.643q0 2.214-2.211 2.214zM213.671 47.903q2.212 0 2.212 2.215v6.643q0 2.214-2.212 2.214H203.35v42.073q0 2.214-2.212 2.214h-8.847q-2.212 0-2.212-2.214V58.975h-10.322q-2.211 0-2.211-2.214v-6.643q0-2.215 2.211-2.215z" clip-rule="evenodd"/><path fill="#111" d="M252.764 47.903c15.482 0 20.643 6.644 20.643 14.025v7.38c0 4.43-2.212 8.858-8.848 11.81l8.111 19.93c.737 1.476-.738 2.214-2.212 2.214h-8.848c-1.474 0-2.212-1.476-2.212-2.214l-7.372-18.453h-5.898v18.453q0 2.214-2.212 2.214h-8.847q-2.211 0-2.212-2.214v-50.93q-1.105-2.215 2.212-2.215zm-6.629 24.358h6.634c3.687 0 7.373-1.477 7.373-5.167V64.88c0-3.69-3.686-5.167-7.373-5.167h-6.634zM311.744 47.167c15.482 0 20.643 6.642 20.643 14.023v28.788c0 7.38-5.898 14.024-20.643 14.024s-20.643-6.643-20.643-14.024V61.19c0-7.38 5.161-14.023 20.643-14.023m.743 11.071c-3.686 0-7.372 1.476-7.373 5.166v24.359c.001 3.69 3.687 5.167 7.373 5.167s7.373-1.477 7.373-5.167V63.404c0-3.69-3.686-5.166-7.373-5.166m9.566-26.573c1.474 0 2.212.739 1.474 2.215l-5.897 8.119c-.737.738-1.475 1.475-2.949 1.476h-6.636c-1.474 0-2.212-.738-1.475-2.214l2.95-7.381c.737-1.476 1.474-2.215 3.686-2.215zM372.191 47.902c15.483 0 20.643 6.643 20.643 14.024v8.857c0 7.382-5.161 14.025-20.643 14.025h-6.635v16.238q0 2.214-2.212 2.214h-8.847q-2.212 0-2.212-2.214v-50.93q0-2.214 2.212-2.214zm-6.64 25.834h6.634c3.687 0 7.373-1.477 7.374-5.167v-3.69c0-3.691-3.687-5.168-7.374-5.168h-6.634zM426.752 47.167c15.483 0 20.643 6.643 20.643 14.024v28.786c0 7.381-5.898 14.024-20.643 14.025-14.745 0-20.643-6.644-20.643-14.025V61.191c0-7.381 5.161-14.024 20.643-14.024m.009 11.07c-3.686 0-7.373 1.477-7.373 5.168v24.357c0 3.69 3.687 5.167 7.373 5.167s7.372-1.476 7.372-5.167V63.405c0-3.69-3.686-5.167-7.372-5.167"/><path fill="#111" fill-rule="evenodd" d="M476.89 92.19h16.22q2.211 0 2.212 2.215v6.643q0 2.214-2.212 2.214h-27.279q-2.212 0-2.212-2.214v-50.93q0-2.215 2.212-2.215h8.847q2.212 0 2.212 2.215zM513.016 103.262q-2.212 0-2.212-2.214v-50.93q0-2.215 2.212-2.215h28.016q2.211 0 2.211 2.215v6.643q0 2.214-2.211 2.214h-16.957V69.31h15.482q2.212 0 2.212 2.214v5.905q0 2.215-2.212 2.215h-15.482V92.19h17.694q2.212 0 2.212 2.214v6.643q0 2.214-2.212 2.214zM585.987 62.665c0-3.69-2.949-5.167-6.635-5.167s-6.636 1.477-6.636 5.167v.738c0 2.215 1.475 2.953 2.949 3.69l14.008 4.43c5.898 2.214 10.322 6.643 10.322 12.548v5.904c0 7.382-5.161 14.025-20.643 14.025s-20.644-6.643-20.644-14.025V84.81q0-2.215 2.212-2.215h8.847q2.212 0 2.212 2.215v3.69c0 3.69 2.949 5.167 7.373 5.167 3.686 0 7.372-1.476 7.372-5.167v-1.476c0-2.952-3.686-4.429-7.372-5.167l-11.797-4.428c-4.423-1.477-7.372-5.905-7.372-11.072v-5.167c0-7.381 4.423-14.024 19.169-14.024 15.482 0 19.906 6.643 19.906 14.024v2.952q0 2.215-2.212 2.215h-8.847q-2.212 0-2.212-2.215z" clip-rule="evenodd"/></svg>